<mxfile host="app.diagrams.net" modified="2021-09-06T15:32:35.975Z" agent="5.0 (Macintosh; Intel Mac OS X 10_15_7) AppleWebKit/537.36 (KHTML, like Gecko) Chrome/92.0.4515.131 Safari/537.36" etag="29n5HOt4U7cHatVfBDMQ" version="15.0.6" type="github">
  <diagram id="VcT7N_Tyg6jZ2bcmCsUK" name="Page-1">
    <mxGraphModel dx="897" dy="672" grid="1" gridSize="10" guides="1" tooltips="1" connect="1" arrows="1" fold="1" page="1" pageScale="1" pageWidth="827" pageHeight="1169" math="0" shadow="0">
      <root>
        <mxCell id="0" />
        <mxCell id="1" parent="0" />
        <mxCell id="pNTtO6MQ1PqvJqSA931h-4" style="edgeStyle=orthogonalEdgeStyle;rounded=0;orthogonalLoop=1;jettySize=auto;html=1;entryX=0.5;entryY=0;entryDx=0;entryDy=0;" edge="1" parent="1" source="pNTtO6MQ1PqvJqSA931h-1" target="pNTtO6MQ1PqvJqSA931h-2">
          <mxGeometry relative="1" as="geometry" />
        </mxCell>
        <mxCell id="pNTtO6MQ1PqvJqSA931h-1" value="" style="ellipse;whiteSpace=wrap;html=1;" vertex="1" parent="1">
          <mxGeometry x="330" y="120" width="120" height="100" as="geometry" />
        </mxCell>
        <mxCell id="pNTtO6MQ1PqvJqSA931h-5" style="edgeStyle=orthogonalEdgeStyle;rounded=0;orthogonalLoop=1;jettySize=auto;html=1;entryX=0.5;entryY=0;entryDx=0;entryDy=0;" edge="1" parent="1" source="pNTtO6MQ1PqvJqSA931h-2" target="pNTtO6MQ1PqvJqSA931h-3">
          <mxGeometry relative="1" as="geometry" />
        </mxCell>
        <mxCell id="pNTtO6MQ1PqvJqSA931h-2" value="" style="shape=parallelogram;perimeter=parallelogramPerimeter;whiteSpace=wrap;html=1;fixedSize=1;" vertex="1" parent="1">
          <mxGeometry x="330" y="290" width="120" height="60" as="geometry" />
        </mxCell>
        <mxCell id="pNTtO6MQ1PqvJqSA931h-3" value="" style="rhombus;whiteSpace=wrap;html=1;" vertex="1" parent="1">
          <mxGeometry x="350" y="420" width="80" height="80" as="geometry" />
        </mxCell>
      </root>
    </mxGraphModel>
  </diagram>
</mxfile>
